<?xml version="1.0" ?><svg height="400px" version="1.1" viewBox="0 0 400 400" width="400px" xmlns="http://www.w3.org/2000/svg" xmlns:xlink="http://www.w3.org/1999/xlink"><title/><desc/><defs><rect height="40" id="path-1" rx="14" width="40" x="40" y="190"/><filter filterUnits="objectBoundingBox" height="200%" id="filter-2" width="200%" x="-50%" y="-50%"><feOffset dx="0" dy="2" in="SourceAlpha" result="shadowOffsetOuter1"/><feGaussianBlur in="shadowOffsetOuter1" result="shadowBlurOuter1" stdDeviation="2"/><feColorMatrix in="shadowBlurOuter1" type="matrix" values="0 0 0 0 0   0 0 0 0 0   0 0 0 0 0  0 0 0 0.5 0"/></filter><rect height="40" id="path-3" rx="14" width="40" x="200" y="190"/><filter filterUnits="objectBoundingBox" height="200%" id="filter-4" width="200%" x="-50%" y="-50%"><feOffset dx="0" dy="2" in="SourceAlpha" result="shadowOffsetOuter1"/><feGaussianBlur in="shadowOffsetOuter1" result="shadowBlurOuter1" stdDeviation="2"/><feColorMatrix in="shadowBlurOuter1" type="matrix" values="0 0 0 0 0   0 0 0 0 0   0 0 0 0 0  0 0 0 0.5 0"/></filter><path d="M5,68.0000405 C5,63.5817401 8.58890267,60 13.0000405,60 L35,60 L35,90 L20,90 C11.7157288,90 5,83.2860927 5,75 L5,68.0000405 Z" id="path-5"/><filter filterUnits="objectBoundingBox" height="200%" id="filter-6" width="200%" x="-50%" y="-50%"><feOffset dx="0" dy="2" in="SourceAlpha" result="shadowOffsetOuter1"/><feGaussianBlur in="shadowOffsetOuter1" result="shadowBlurOuter1" stdDeviation="2"/><feColorMatrix in="shadowBlurOuter1" type="matrix" values="0 0 0 0 0   0 0 0 0 0   0 0 0 0 0  0 0 0 0.5 0"/></filter><rect height="30" id="path-7" rx="6" width="20" x="130" y="0"/><filter filterUnits="objectBoundingBox" height="200%" id="filter-8" width="200%" x="-50%" y="-50%"><feOffset dx="0" dy="2" in="SourceAlpha" result="shadowOffsetOuter1"/><feGaussianBlur in="shadowOffsetOuter1" result="shadowBlurOuter1" stdDeviation="2"/><feColorMatrix in="shadowBlurOuter1" type="matrix" values="0 0 0 0 0   0 0 0 0 0   0 0 0 0 0  0 0 0 0.5 0"/></filter><path d="M275,68.0000405 C275,63.5817401 271.411097,60 266.99996,60 L245,60 L245,90 L260,90 C268.284271,90 275,83.2860927 275,75 L275,68.0000405 L275,68.0000405 Z" id="path-9"/><filter filterUnits="objectBoundingBox" height="200%" id="filter-10" width="200%" x="-50%" y="-50%"><feOffset dx="0" dy="2" in="SourceAlpha" result="shadowOffsetOuter1"/><feGaussianBlur in="shadowOffsetOuter1" result="shadowBlurOuter1" stdDeviation="2"/><feColorMatrix in="shadowBlurOuter1" type="matrix" values="0 0 0 0 0   0 0 0 0 0   0 0 0 0 0  0 0 0 0.5 0"/></filter><path d="M30,100 L19.9964916,100 C8.9596877,100 0,108.952581 0,119.99615 L0,180.00385 C0,191.037662 8.95273426,200 19.9964916,200 L260.003508,200 C271.040312,200 280,191.047419 280,180.00385 L280,119.99615 C280,108.962338 271.047266,100 260.003508,100 L250,100 L250,45.9987895 C250,31.6418102 238.362904,20 224.007819,20 L55.9921808,20 C41.6341348,20 30,31.6400546 30,45.9987895 L30,100 L30,100 Z" id="path-11"/><filter filterUnits="objectBoundingBox" height="200%" id="filter-12" width="200%" x="-50%" y="-50%"><feOffset dx="0" dy="2" in="SourceAlpha" result="shadowOffsetOuter1"/><feGaussianBlur in="shadowOffsetOuter1" result="shadowBlurOuter1" stdDeviation="2"/><feColorMatrix in="shadowBlurOuter1" type="matrix" values="0 0 0 0 0   0 0 0 0 0   0 0 0 0 0  0 0 0 0.5 0"/></filter><path d="M229.999303,100.220351 C229.999767,100.156245 230,100.092083 230,100.027868 L230,66.0012057 C230,51.6469965 218.357026,40 203.99469,40 L76.0053099,40 C61.6370495,40 50,51.6411363 50,66.0012057 L50,100.027868 C50,100.092083 50.000233,100.156245 50.0006983,100.220351 L229.999352,100.220351 L229.999303,100.220351 Z" id="path-13"/><filter filterUnits="objectBoundingBox" height="200%" id="filter-14" width="200%" x="-50%" y="-50%"><feOffset dx="0" dy="1" in="SourceAlpha" result="shadowOffsetOuter1"/><feGaussianBlur in="shadowOffsetOuter1" result="shadowBlurOuter1" stdDeviation="2"/><feColorMatrix in="shadowBlurOuter1" type="matrix" values="0 0 0 0 0   0 0 0 0 0   0 0 0 0 0  0 0 0 0.5 0"/></filter><circle cx="50" cy="150" id="path-15" r="20"/><filter filterUnits="objectBoundingBox" height="200%" id="filter-16" width="200%" x="-50%" y="-50%"><feOffset dx="0" dy="2" in="SourceAlpha" result="shadowOffsetOuter1"/><feGaussianBlur in="shadowOffsetOuter1" result="shadowBlurOuter1" stdDeviation="2"/><feColorMatrix in="shadowBlurOuter1" type="matrix" values="0 0 0 0 0   0 0 0 0 0   0 0 0 0 0  0 0 0 0.5 0"/></filter><circle cx="230" cy="150" id="path-17" r="20"/><filter filterUnits="objectBoundingBox" height="200%" id="filter-18" width="200%" x="-50%" y="-50%"><feOffset dx="0" dy="2" in="SourceAlpha" result="shadowOffsetOuter1"/><feGaussianBlur in="shadowOffsetOuter1" result="shadowBlurOuter1" stdDeviation="2"/><feColorMatrix in="shadowBlurOuter1" type="matrix" values="0 0 0 0 0   0 0 0 0 0   0 0 0 0 0  0 0 0 0.5 0"/></filter><rect height="10" id="path-19" rx="4" width="100" x="90" y="170"/><filter filterUnits="objectBoundingBox" height="200%" id="filter-20" width="200%" x="-50%" y="-50%"><feOffset dx="0" dy="2" in="SourceAlpha" result="shadowOffsetOuter1"/><feGaussianBlur in="shadowOffsetOuter1" result="shadowBlurOuter1" stdDeviation="2"/><feColorMatrix in="shadowBlurOuter1" type="matrix" values="0 0 0 0 0   0 0 0 0 0   0 0 0 0 0  0 0 0 0.5 0"/></filter><rect height="10" id="path-21" rx="4" width="100" x="90" y="145"/><filter filterUnits="objectBoundingBox" height="200%" id="filter-22" width="200%" x="-50%" y="-50%"><feOffset dx="0" dy="2" in="SourceAlpha" result="shadowOffsetOuter1"/><feGaussianBlur in="shadowOffsetOuter1" result="shadowBlurOuter1" stdDeviation="2"/><feColorMatrix in="shadowBlurOuter1" type="matrix" values="0 0 0 0 0   0 0 0 0 0   0 0 0 0 0  0 0 0 0.5 0"/></filter><rect height="10" id="path-23" rx="4" width="100" x="90" y="120"/><filter filterUnits="objectBoundingBox" height="200%" id="filter-24" width="200%" x="-50%" y="-50%"><feOffset dx="0" dy="2" in="SourceAlpha" result="shadowOffsetOuter1"/><feGaussianBlur in="shadowOffsetOuter1" result="shadowBlurOuter1" stdDeviation="2"/><feColorMatrix in="shadowBlurOuter1" type="matrix" values="0 0 0 0 0   0 0 0 0 0   0 0 0 0 0  0 0 0 0.5 0"/></filter><rect height="10" id="path-25" width="6" x="137" y="40"/><filter filterUnits="objectBoundingBox" height="200%" id="filter-26" width="200%" x="-50%" y="-50%"><feOffset dx="0" dy="2" in="SourceAlpha" result="shadowOffsetOuter1"/><feGaussianBlur in="shadowOffsetOuter1" result="shadowBlurOuter1" stdDeviation="2"/><feColorMatrix in="shadowBlurOuter1" type="matrix" values="0 0 0 0 0   0 0 0 0 0   0 0 0 0 0  0 0 0 0.5 0"/></filter><rect height="10" id="path-27" rx="5" width="40" x="120" y="50"/><filter filterUnits="objectBoundingBox" height="200%" id="filter-28" width="200%" x="-50%" y="-50%"><feOffset dx="0" dy="2" in="SourceAlpha" result="shadowOffsetOuter1"/><feGaussianBlur in="shadowOffsetOuter1" result="shadowBlurOuter1" stdDeviation="2"/><feColorMatrix in="shadowBlurOuter1" type="matrix" values="0 0 0 0 0   0 0 0 0 0   0 0 0 0 0  0 0 0 0.5 0"/></filter></defs><g fill="none" fill-rule="evenodd" id="Page-1" stroke="none" stroke-width="1"><g id="car"><ellipse cx="200" cy="200" fill="#82A3A1" id="background" rx="200" ry="200"/><g id="Group-6" transform="translate(60.000000, 85.000000)"><g id="Rectangle-6"><use fill="black" fill-opacity="1" filter="url(#filter-2)" xlink:href="#path-1"/><use fill="#535C76" fill-rule="evenodd" xlink:href="#path-1"/></g><g id="Rectangle-6-Copy"><use fill="black" fill-opacity="1" filter="url(#filter-4)" xlink:href="#path-3"/><use fill="#535C76" fill-rule="evenodd" xlink:href="#path-3"/></g><g id="Combined-Shape"><use fill="black" fill-opacity="1" filter="url(#filter-6)" xlink:href="#path-5"/><use fill="#F2ECD2" fill-rule="evenodd" xlink:href="#path-5"/></g><path d="M13,72.004739 C13,67.5838437 16.5836436,64 21.004739,64 L35,64 L35,86 L24,86 C17.9248678,86 13,81.076468 13,75 L13,72.004739 Z" fill="#FCFAF1" id="Combined-Shape"/><g id="Rectangle-16"><use fill="black" fill-opacity="1" filter="url(#filter-8)" xlink:href="#path-7"/><use fill="#EE7674" fill-rule="evenodd" xlink:href="#path-7"/></g><g id="Rectangle-14-Copy"><use fill="black" fill-opacity="1" filter="url(#filter-10)" xlink:href="#path-9"/><use fill="#F2ECD2" fill-rule="evenodd" xlink:href="#path-9"/></g><path d="M267,72.004739 C267,67.5838437 263.416356,64 258.995261,64 L245,64 L245,86 L256,86 C262.075132,86 267,81.076468 267,75 L267,72.004739 L267,72.004739 Z" fill="#FCFAF1" id="Rectangle-14-Copy"/><g id="Combined-Shape"><use fill="black" fill-opacity="1" filter="url(#filter-12)" xlink:href="#path-11"/><use fill="#F3ECD3" fill-rule="evenodd" xlink:href="#path-11"/></g><g id="Combined-Shape"><use fill="black" fill-opacity="1" filter="url(#filter-14)" xlink:href="#path-13"/><use fill="#FCFAF1" fill-rule="evenodd" xlink:href="#path-13"/></g><g id="Oval"><use fill="black" fill-opacity="1" filter="url(#filter-16)" xlink:href="#path-15"/><use fill="#535C76" fill-rule="evenodd" xlink:href="#path-15"/></g><g id="Oval-Copy"><use fill="black" fill-opacity="1" filter="url(#filter-18)" xlink:href="#path-17"/><use fill="#535C76" fill-rule="evenodd" xlink:href="#path-17"/></g><g id="Rectangle-2"><use fill="black" fill-opacity="1" filter="url(#filter-20)" xlink:href="#path-19"/><use fill="#535C76" fill-rule="evenodd" xlink:href="#path-19"/></g><g id="Rectangle-2-Copy"><use fill="black" fill-opacity="1" filter="url(#filter-22)" xlink:href="#path-21"/><use fill="#535C76" fill-rule="evenodd" xlink:href="#path-21"/></g><g id="Rectangle-2-Copy-2"><use fill="black" fill-opacity="1" filter="url(#filter-24)" xlink:href="#path-23"/><use fill="#535C76" fill-rule="evenodd" xlink:href="#path-23"/></g><g id="Rectangle-14"><use fill="black" fill-opacity="1" filter="url(#filter-26)" xlink:href="#path-25"/><use fill="#535C76" fill-rule="evenodd" xlink:href="#path-25"/></g><g id="Rectangle-15"><use fill="black" fill-opacity="1" filter="url(#filter-28)" xlink:href="#path-27"/><use fill="#535C76" fill-rule="evenodd" xlink:href="#path-27"/></g></g></g></g></svg>