<?xml version="1.0" ?><svg height="400px" version="1.1" viewBox="0 0 400 400" width="400px" xmlns="http://www.w3.org/2000/svg" xmlns:xlink="http://www.w3.org/1999/xlink"><title/><desc/><defs><path d="M255.877686,101.761283 C255.877686,67.6514683 230.863837,40 200.00769,40 C169.151544,40 144.137695,67.6514683 144.137695,101.761283 L144.137695,256.164491 L255.877686,256.164491 L255.877686,101.761283 L255.877686,101.761283 L255.877686,101.761283 Z M280,96 C280,51.81722 244.18278,16 200,16 C155.81722,16 120,51.81722 120,96 L120,296 L280,296 L280,96 L280,96 L280,96 Z" id="path-1"/><filter filterUnits="objectBoundingBox" height="200%" id="filter-2" width="200%" x="-50%" y="-50%"><feOffset dx="0" dy="2" in="SourceAlpha" result="shadowOffsetOuter1"/><feGaussianBlur in="shadowOffsetOuter1" result="shadowBlurOuter1" stdDeviation="2"/><feColorMatrix in="shadowBlurOuter1" type="matrix" values="0 0 0 0 0   0 0 0 0 0   0 0 0 0 0  0 0 0 0.5 0"/></filter><ellipse cx="200" cy="240" id="path-3" rx="125.5" ry="125.5"/><filter filterUnits="objectBoundingBox" height="200%" id="filter-4" width="200%" x="-50%" y="-50%"><feOffset dx="0" dy="2" in="SourceAlpha" result="shadowOffsetOuter1"/><feGaussianBlur in="shadowOffsetOuter1" result="shadowBlurOuter1" stdDeviation="2"/><feColorMatrix in="shadowBlurOuter1" type="matrix" values="0 0 0 0 0   0 0 0 0 0   0 0 0 0 0  0 0 0 0.5 0"/></filter></defs><g fill="none" fill-rule="evenodd" id="Page-1" stroke="none" stroke-width="1"><g id="lock"><ellipse cx="200" cy="200" fill="#82A3A1" id="background" rx="200" ry="200"/><g id="Combined-Shape"><use fill="black" fill-opacity="1" filter="url(#filter-2)" xlink:href="#path-1"/><use fill="#F2ECD2" fill-rule="evenodd" xlink:href="#path-1"/></g><g id="Oval-3"><use fill="black" fill-opacity="1" filter="url(#filter-4)" xlink:href="#path-3"/><use fill="#F2ECD2" fill-rule="evenodd" xlink:href="#path-3"/></g><ellipse cx="200" cy="240" fill="#EE7674" id="Oval-14" rx="30.5" ry="30.5"/><rect fill="#545E75" height="60" id="Rectangle-5" rx="4" width="24" x="188" y="132"/><path d="M303.993444,228 C306.206204,228 308,229.784293 308,231.990053 L308,248.009947 C308,250.213592 306.204319,252 303.993444,252 L252.006556,252 C249.793796,252 248,250.215707 248,248.009947 L248,231.990053 C248,229.786408 249.795681,228 252.006556,228" fill="#545E75" id="Rectangle-5"/><rect fill="#545E75" height="60" id="Rectangle-5" rx="4" width="24" x="188" y="288"/><path d="M147.993444,252 C150.206204,252 152,250.215707 152,248.009947 L152,231.990053 C152,229.786408 150.204319,228 147.993444,228 L96.0065556,228 C93.793796,228 92,229.784293 92,231.990053 L92,248.009947 C92,250.213592 93.7956808,252 96.0065556,252" fill="#545E75" id="Rectangle-5"/><g fill="#545E75" id="Group" transform="translate(200.000000, 240.000000) rotate(-45.000000) translate(-200.000000, -240.000000) translate(92.000000, 132.000000)"><rect height="60" id="Rectangle-5" rx="4" width="24" x="96" y="0"/><path d="M211.993444,96 C214.206204,96 216,97.7842933 216,99.990053 L216,116.009947 C216,118.213592 214.204319,120 211.993444,120 L160.006556,120 C157.793796,120 156,118.215707 156,116.009947 L156,99.990053 C156,97.7864076 157.795681,96 160.006556,96" id="Rectangle-5"/><rect height="60" id="Rectangle-5" rx="4" width="24" x="96" y="156"/><path d="M55.9934444,120 C58.206204,120 60,118.215707 60,116.009947 L60,99.990053 C60,97.7864076 58.2043192,96 55.9934444,96 L4.0065556,96 C1.79379604,96 0,97.7842933 0,99.990053 L0,116.009947 C0,118.213592 1.79568082,120 4.0065556,120" id="Rectangle-5"/></g></g></g></svg>